<svg width="26" height="26" viewBox="0 0 26 26" fill="none" xmlns="http://www.w3.org/2000/svg">
  <path d="M21.6818 15.5344C21.1028 17.3757 19.8142 19.6577 17.2917 21.0103C15.7282 21.8487 14.0306 22.1833 12.3831 22.071L12.4257 3.94291C12.4778 3.93862 12.5301 3.93472 12.5825 3.93123C13.0681 3.92769 13.6665 3.94932 14.28 4.01902C14.5536 4.05012 14.8247 4.0902 15.0863 4.1403C15.6587 4.27589 16.2174 4.46652 16.754 4.70967C18.5103 5.50552 20.0281 6.86323 21.0099 8.69434C21.8203 10.2056 22.1598 11.8419 22.0803 13.437C22.0472 13.9746 21.9268 14.7156 21.6818 15.5344ZM11.4254 4.07488L11.3834 21.947C8.74393 21.4708 6.34092 19.838 4.97576 17.292C2.60158 12.8643 4.2663 7.35026 8.694 4.97607C9.26708 4.66878 10.2463 4.28822 11.4254 4.07488Z" stroke="url(#paint0_linear_0_495)"/>
  <defs>
    <linearGradient id="paint0_linear_0_495" x1="3.75599" y1="11.7235" x2="23.9646" y2="12.9922" gradientUnits="userSpaceOnUse">
      <stop offset="0.288448" stop-color="#555248"/>
      <stop offset="0.780176" stop-color="#1B1A17" stop-opacity="0"/>
    </linearGradient>
  </defs>
</svg>
